<svg xmlns="http://www.w3.org/2000/svg" viewBox="0 0 512 512">
  <defs>
    <linearGradient id="bg" x1="0" y1="0" x2="0" y2="1">
      <stop offset="0%" stop-color="#5c2d91"/>
      <stop offset="100%" stop-color="#8b5fc7"/>
    </linearGradient>
  </defs>
  <rect width="512" height="512" rx="96" fill="url(#bg)"/>
  <circle cx="256" cy="256" r="188" fill="#ffffff20"/>
  <!-- Whale body -->
  <ellipse cx="250" cy="190" rx="90" ry="55" fill="#4fc3f7"/>
  <ellipse cx="250" cy="200" rx="75" ry="40" fill="#29b6f6"/>
  <!-- Whale tail -->
  <path d="M340 185 Q370 155 365 130 Q355 150 340 160 Q345 145 335 125 Q330 150 320 165" fill="#4fc3f7"/>
  <!-- Whale eye -->
  <circle cx="195" cy="180" r="8" fill="#fff"/>
  <circle cx="197" cy="179" r="4" fill="#1a1a2e"/>
  <!-- Whale mouth -->
  <path d="M165 200 Q195 215 230 205" fill="none" stroke="#1565c0" stroke-width="3" stroke-linecap="round"/>
  <!-- Whale spout -->
  <path d="M220 140 Q215 120 205 110 M220 140 Q225 118 235 108" fill="none" stroke="#81d4fa" stroke-width="4" stroke-linecap="round"/>
  <!-- Suitcase body -->
  <rect x="195" y="310" width="120" height="85" rx="10" fill="#8d6e63"/>
  <rect x="195" y="310" width="120" height="85" rx="10" fill="none" stroke="#6d4c41" stroke-width="3"/>
  <!-- Suitcase handle -->
  <path d="M230 310 L230 295 Q230 285 240 285 L270 285 Q280 285 280 295 L280 310" fill="none" stroke="#6d4c41" stroke-width="5" stroke-linecap="round"/>
  <!-- Suitcase straps -->
  <line x1="235" y1="310" x2="235" y2="395" stroke="#6d4c41" stroke-width="3"/>
  <line x1="275" y1="310" x2="275" y2="395" stroke="#6d4c41" stroke-width="3"/>
  <!-- Suitcase clasp -->
  <rect x="248" y="345" width="14" height="10" rx="2" fill="#ffd54f"/>
</svg>
