<svg xmlns="http://www.w3.org/2000/svg" viewBox="0 0 512 512">
  <defs>
    <linearGradient id="bg" x1="0" y1="0" x2="0" y2="1">
      <stop offset="0%" stop-color="#1a1a2e"/>
      <stop offset="100%" stop-color="#2d2d5e"/>
    </linearGradient>
  </defs>
  <rect width="512" height="512" rx="96" fill="url(#bg)"/>
  <circle cx="256" cy="256" r="188" fill="#ffffff20"/>
  <!-- Whale body -->
  <ellipse cx="250" cy="200" rx="90" ry="55" fill="#4fc3f7"/>
  <ellipse cx="250" cy="210" rx="75" ry="40" fill="#29b6f6"/>
  <!-- Whale tail -->
  <path d="M340 195 Q370 165 365 140 Q355 160 340 170 Q345 155 335 135 Q330 160 320 175" fill="#4fc3f7"/>
  <!-- Whale eye -->
  <circle cx="195" cy="190" r="8" fill="#fff"/>
  <circle cx="197" cy="189" r="4" fill="#1a1a2e"/>
  <!-- Whale mouth -->
  <path d="M165 210 Q195 225 230 215" fill="none" stroke="#1565c0" stroke-width="3" stroke-linecap="round"/>
  <!-- Whale spout -->
  <path d="M220 150 Q215 130 205 120 M220 150 Q225 128 235 118" fill="none" stroke="#81d4fa" stroke-width="4" stroke-linecap="round"/>
  <!-- House body -->
  <rect x="195" y="310" width="120" height="90" rx="4" fill="#e8c170"/>
  <!-- House roof -->
  <path d="M180 315 L255 265 L330 315 Z" fill="#d4564a"/>
  <!-- House door -->
  <rect x="235" y="350" width="30" height="50" rx="3" fill="#8b5e3c"/>
  <circle cx="260" cy="378" r="3" fill="#e8c170"/>
  <!-- House window -->
  <rect x="275" y="330" width="25" height="22" rx="3" fill="#81d4fa"/>
  <line x1="287.5" y1="330" x2="287.5" y2="352" stroke="#e8c170" stroke-width="2"/>
  <line x1="275" y1="341" x2="300" y2="341" stroke="#e8c170" stroke-width="2"/>
</svg>
